<?xml version="1.0" encoding="UTF-8"?>
<svg xmlns="http://www.w3.org/2000/svg" width="112" height="112" viewBox="0 0 112 112" fill="none">
  <path d="M55.6784 20.5734C55.4134 20.2148 54.9722 20 54.5001 20C54.028 20 53.5866 20.2148 53.3216 20.5734C52.1331 22.182 24.2154 60.1382 24.2154 75.0043C24.2154 90.337 37.8009 102.811 54.5001 102.811C71.1993 102.811 84.7848 90.337 84.7848 75.0043C84.7848 60.1383 56.867 22.182 55.6784 20.5734Z" fill="#429EFE"></path>
  <path d="M62.19 91.7409C45.4908 91.7409 31.9053 79.2665 31.9053 63.9337C31.9053 54.2537 43.7421 34.7841 52.329 21.9336C47.1477 29.0906 24.2154 61.5307 24.2154 75.0043C24.2154 90.337 37.8009 102.811 54.5001 102.811C67.7851 102.811 79.099 94.916 83.1702 83.9676C77.7233 88.7785 70.3266 91.7409 62.19 91.7409Z" fill="#1D86F3"></path>
  <path d="M67.8862 72.3019C63.332 72.3019 59.6268 68.8998 59.6268 64.7182C59.6268 60.5365 63.332 57.1345 67.8862 57.1345C72.4404 57.1345 76.1456 60.5365 76.1456 64.7182C76.1456 68.8998 72.4404 72.3019 67.8862 72.3019Z" fill="#B3E97D"></path>
  <path d="M61.9052 53.5603C64.6316 53.5603 66.8418 51.5309 66.8418 49.0275C66.8418 46.5241 64.6316 44.4947 61.9052 44.4947C59.1787 44.4947 56.9685 46.5241 56.9685 49.0275C56.9685 51.5309 59.1787 53.5603 61.9052 53.5603Z" fill="#B3E97D"></path>
  <path d="M32.5611 41.6822C31.5944 41.5641 29.158 41.0699 27.4184 39.0337C26.1825 37.586 25.8857 36.0155 25.8189 35.2084C25.7623 34.5266 25.1434 34 24.3988 34C23.6543 34 23.0353 34.5266 22.9786 35.2084C22.9117 36.0158 22.6149 37.5861 21.3793 39.0335C19.6395 41.0702 17.2031 41.5645 16.2364 41.6822C15.5288 41.7687 15 42.3227 15 42.9784C15 43.6341 15.5288 44.1882 16.2364 44.2746C17.2033 44.3927 19.6397 44.887 21.3792 46.9231C22.615 48.3709 22.9119 49.9414 22.9786 50.7485C23.0352 51.4302 23.654 51.9568 24.3988 51.9568C25.1435 51.9568 25.7622 51.4302 25.8189 50.7485C25.8858 49.941 26.1826 48.3707 27.4182 46.9233C29.158 44.8866 31.5944 44.3924 32.5611 44.2746C33.2687 44.1881 33.7975 43.6341 33.7975 42.9784C33.7975 42.3229 33.2687 41.7687 32.5611 41.6822Z" fill="#3B8D48"></path>
  <path d="M96.8952 23.8345C95.2492 23.6372 91.1017 22.8114 88.1404 19.4097C86.0365 16.991 85.5312 14.3672 85.4176 13.0188C85.3213 11.8798 84.2676 11 83 11C81.7324 11 80.679 11.8798 80.5824 13.0188C80.4685 14.3677 79.9632 16.9912 77.8596 19.4097C74.898 22.812 70.7505 23.6378 69.1048 23.8345C67.9002 23.979 67 24.9045 67 26C67 27.0955 67.9002 28.0212 69.1048 28.1655C70.7508 28.3628 74.8983 29.1886 77.8596 32.5903C79.9635 35.009 80.4688 37.6328 80.5824 38.9812C80.6787 40.1202 81.7321 41 83 41C84.2676 41 85.321 40.1202 85.4176 38.9812C85.5315 37.6323 86.0368 35.0088 88.1401 32.5906C91.102 29.188 95.2495 28.3622 96.8952 28.1655C98.0998 28.021 99 27.0955 99 26C99 24.9048 98.0998 23.979 96.8952 23.8345Z" fill="#3B8D48"></path>
</svg>
