<?xml version="1.0" encoding="UTF-8"?>
<svg xmlns="http://www.w3.org/2000/svg" width="112" height="112" viewBox="0 0 112 112" fill="none">
  <path d="M58.4278 74.4604C58.4278 75.816 57.3315 76.9123 55.9775 76.9123H47.857C46.503 76.9123 45.4051 75.8176 45.4051 74.4604L35.2632 32.6314C35.2632 31.279 36.3611 30.1795 37.7167 30.1795H45.8356C47.1912 30.1795 48.2875 31.2774 48.2875 32.6314L58.4278 74.4604Z" fill="#AA2102"></path>
  <path d="M37.4857 87.7532C32.5443 87.7532 28.5312 83.4856 28.5312 78.2255V71.715C28.5312 66.4501 32.5445 62.184 37.4857 62.184H52.4073C57.355 62.184 61.3588 66.4517 61.3588 71.715V78.2255C61.3588 83.4874 57.3552 87.7532 52.4073 87.7532H37.4857Z" fill="#F9BDA0"></path>
  <path d="M37.9945 87.8288C36.1239 87.8288 34.608 86.3131 34.608 84.4455C34.608 82.5717 36.1237 81.059 37.9945 81.059H61.8439C63.7131 81.059 65.2288 82.5715 65.2288 84.4455C65.2288 86.3131 63.7131 87.8288 61.8439 87.8288H37.9945Z" fill="#F9BDA0"></path>
  <path d="M37.5203 75.4548C35.6527 75.4548 34.1322 73.9359 34.1322 72.0683C34.1322 70.1977 35.6527 68.6818 37.5203 68.6818H65.075C66.9456 68.6818 68.4631 70.1975 68.4631 72.0683C68.4631 73.9359 66.9458 75.4548 65.075 75.4548H37.5203Z" fill="#F9BDA0"></path>
  <path d="M36.8905 81.8742C35.0199 81.8742 33.504 80.3585 33.504 78.4877C33.504 76.6201 35.0197 75.1044 36.8905 75.1044H64.442C66.3142 75.1044 67.8285 76.6201 67.8285 78.4877C67.8285 80.3583 66.3144 81.8742 64.442 81.8742H36.8905Z" fill="#F9BDA0"></path>
  <path d="M35.6417 69.0024C33.7711 69.0024 32.2537 67.4868 32.2537 65.616C32.2537 63.7483 33.7709 62.2327 35.6417 62.2327H63.1996C65.0672 62.2327 66.5829 63.7483 66.5829 65.616C66.5829 67.4866 65.0672 69.0024 63.1996 69.0024H35.6417Z" fill="#F9BDA0"></path>
  <path d="M42.1994 59.2342L35.992 55.7928C35.4406 55.7928 35.5742 56.7809 34.4542 58.95C32.2442 61.6799 28.4573 66.6386 28.4573 66.6386L37.308 65.6177C37.308 65.6177 44.139 64.124 42.273 60.9056C41.9276 60.3086 42.5057 59.707 42.1994 59.2342Z" fill="#F9BDA0"></path>
  <path d="M31.1965 62.6583H27.0798V86.5595H31.1965V62.6583Z" fill="#102D35"></path>
  <path d="M27.0798 62.6583H31.1967V86.5595" fill="black"></path>
  <path d="M28.3097 60.3903H5.23779V88.0001H28.3097V60.3903Z" fill="#1D86F3"></path>
  <path d="M20.5849 76.463C21.8366 76.463 22.8513 75.4483 22.8513 74.1965C22.8513 72.9448 21.8366 71.9301 20.5849 71.9301C19.3332 71.9301 18.3185 72.9448 18.3185 74.1965C18.3185 75.4483 19.3332 76.463 20.5849 76.463Z" fill="white"></path>
  <path d="M10.685 76.463C11.9367 76.463 12.9514 75.4483 12.9514 74.1966C12.9514 72.9449 11.9367 71.9302 10.685 71.9302C9.43329 71.9302 8.41858 72.9449 8.41858 74.1966C8.41858 75.4483 9.43329 76.463 10.685 76.463Z" fill="white"></path>
  <path d="M25.1824 56.3786L84.4194 68.4713V17.6878L25.1824 29.7773V56.3786Z" fill="#B3E97D"></path>
  <path d="M27.972 56.3786C27.9704 57.9651 26.8568 59.2499 25.4857 59.2499C24.1114 59.2499 22.9977 57.9651 22.9977 56.3786L22.9961 29.7773C22.9977 28.1908 24.1114 26.9061 25.4857 26.9061C26.857 26.9061 27.9752 28.194 27.972 29.7773V56.3786Z" fill="#3B8D48"></path>
  <path d="M87.938 68.4713C87.9348 70.0546 86.8243 71.3426 85.45 71.3426C84.0787 71.3426 82.9605 70.0546 82.9605 68.4681V17.6878C82.9589 16.1014 84.0757 14.8134 85.4468 14.8134C86.8243 14.8134 87.938 16.1014 87.938 17.6878V68.4713Z" fill="#3B8D48"></path>
  <path d="M84.4165 18.0899L84.4195 17.6879L82.4484 18.0899H84.4165Z" fill="#9E1E00"></path>
  <path d="M95.1521 43.9292C94.6809 43.9292 94.2944 43.546 94.296 43.07C94.2944 42.6004 94.6809 42.2172 95.1521 42.2172H104.906C105.379 42.2172 105.762 42.5972 105.762 43.07C105.762 43.546 105.379 43.9292 104.906 43.9292H95.1521Z" fill="#F29233"></path>
  <path d="M93.2737 50.1148C92.9391 49.7834 92.9391 49.2368 93.2753 48.9038C93.6083 48.5724 94.1533 48.5724 94.4863 48.9038L101.383 55.8008C101.716 56.1354 101.716 56.6788 101.383 57.015C101.049 57.3464 100.505 57.3464 100.172 57.015L93.2737 50.1148Z" fill="#F29233"></path>
  <path d="M93.2756 36.0334C92.9394 36.3648 92.9394 36.9082 93.2756 37.2428C93.6086 37.5774 94.152 37.5774 94.4866 37.2428L101.384 30.3458C101.717 30.0144 101.717 29.4678 101.387 29.1348C101.049 28.8002 100.506 28.8002 100.173 29.1348L93.2756 36.0334Z" fill="#F29233"></path>
</svg>
