<?xml version="1.0" encoding="UTF-8"?>
<svg xmlns="http://www.w3.org/2000/svg" width="112" height="112" viewBox="0 0 112 112" fill="none">
  <path d="M78.874 16.1912H26.9911C24.786 16.1912 23 17.9789 23 20.1823V73.3456L48.6421 98H78.8738C81.0789 98 82.8615 96.214 82.8615 94.0106V20.1823C82.8617 17.9789 81.0791 16.1912 78.874 16.1912Z" fill="#1D86F3"></path>
  <path d="M48.6422 98H48.6722V77.3848C48.6722 75.1831 46.8862 73.3954 44.6811 73.3954H23.0485L48.6422 98Z" fill="#57E1F7"></path>
  <path d="M73.5112 32.1985C73.5112 32.7605 72.994 33.2146 72.3621 33.2146H33.5031C32.8695 33.2146 32.354 32.7607 32.354 32.1985C32.354 31.6349 32.8712 31.1824 33.5031 31.1824H72.3604C72.994 31.1807 73.5112 31.6346 73.5112 32.1985Z" fill="#57E1F7"></path>
  <path d="M73.5112 40.074C73.5112 40.6345 72.994 41.0901 72.3621 41.0901H33.5031C32.8695 41.0901 32.354 40.6345 32.354 40.074C32.354 39.512 32.8712 39.0562 33.5031 39.0562H72.3604C72.994 39.0562 73.5112 39.5118 73.5112 40.074Z" fill="#57E1F7"></path>
  <path d="M73.5112 47.9496C73.5112 48.5115 72.994 48.9656 72.3621 48.9656H33.5031C32.8695 48.9656 32.354 48.5118 32.354 47.9496C32.354 47.3876 32.8712 46.9335 33.5031 46.9335H72.3604C72.994 46.9335 73.5112 47.3874 73.5112 47.9496Z" fill="#57E1F7"></path>
  <path d="M73.5112 55.8268C73.5112 56.3873 72.994 56.8429 72.3621 56.8429H33.5031C32.8695 56.8429 32.354 56.3873 32.354 55.8268C32.354 55.2663 32.8712 54.8107 33.5031 54.8107H72.3604C72.994 54.809 73.5112 55.2663 73.5112 55.8268Z" fill="#57E1F7"></path>
  <path d="M73.5112 63.7023C73.5112 64.2643 72.994 64.7201 72.3621 64.7201H33.5031C32.8695 64.7201 32.354 64.2645 32.354 63.7023C32.354 63.1418 32.8712 62.6879 33.5031 62.6879H72.3604C72.994 62.6879 73.5112 63.1418 73.5112 63.7023Z" fill="#57E1F7"></path>
  <path d="M88.5553 18.0454L84.7553 13.1704C84.7072 13.108 84.6512 13.0533 84.5874 13.0052L79.7149 9.20378C79.331 8.90441 78.7844 8.93827 78.4408 9.28308L43.4713 44.2527C43.349 44.3776 43.2605 44.5299 43.2175 44.7004L40.2998 56.2933C40.2166 56.6212 40.3129 56.97 40.551 57.2094C40.789 57.4488 41.1378 57.5438 41.4684 57.4605L53.0612 54.5415C53.2291 54.4985 53.3839 54.4113 53.5063 54.2877L88.4759 19.3207C88.8194 18.9773 88.852 18.4281 88.5553 18.0454Z" fill="#3B8D48"></path>
  <path d="M86.6512 15.6041L84.7551 13.1704C84.707 13.108 84.651 13.0533 84.5872 13.0052L82.1576 11.1077L43.479 49.7889L47.9727 54.2839L86.6512 15.6041Z" fill="#B3E97D"></path>
  <path d="M43.7951 43.9817L43.4724 44.3044C43.3501 44.4293 43.2616 44.5816 43.2186 44.7521L40.3009 56.3449C40.2177 56.6729 40.314 57.0216 40.5521 57.261C40.7901 57.5004 41.1389 57.5954 41.4695 57.5122L53.0623 54.5931C53.2302 54.5502 53.385 54.4629 53.5074 54.3394L53.8301 54.0167L43.7951 43.9817Z" fill="#EDE3B7"></path>
  <path d="M43.7951 43.9816L44.4692 45.2999C44.3443 45.4235 44.2584 45.5798 44.2154 45.7463L40.3008 56.3449C40.2175 56.6728 40.3139 57.0216 40.5519 57.261C40.79 57.5004 41.1388 57.5954 41.4694 57.5121L53.0622 54.5931C53.2301 54.5501 53.3849 54.4629 53.5073 54.3393L53.83 54.0166L43.7951 43.9816Z" fill="#D3C588"></path>
  <path d="M40.5521 57.2609C40.7915 57.5016 41.1389 57.5953 41.4695 57.512L47.465 56.0025L41.8092 50.348L40.2996 56.3435C40.2164 56.6727 40.3127 57.0202 40.5521 57.2609Z" fill="#3F3C31"></path>
  <path d="M40.5521 57.2609C40.7915 57.5016 41.1389 57.5953 41.4695 57.512L47.465 56.0025L42.3207 50.8593L40.8112 56.8548C40.7279 57.1841 40.3127 57.0202 40.5521 57.2609Z" fill="#191711"></path>
</svg>
