<?xml version="1.0" encoding="UTF-8"?>
<svg xmlns="http://www.w3.org/2000/svg" width="112" height="112" viewBox="0 0 112 112" fill="none">
  <path d="M101.581 30.1896C101.581 27.3355 99.2455 25 96.3914 25H14.1894C11.3351 25.0002 9 27.3355 9 30.1896V80.4274C9 83.2815 11.3351 85.617 14.1894 85.617H96.3911C99.2452 85.617 101.58 83.2817 101.58 80.4274V30.1896H101.581Z" fill="#1D86F3"></path>
  <path d="M101.581 51.7875H9V63.6685H101.581V51.7875Z" fill="#B3E97D"></path>
  <path d="M92.5857 50.5349C92.5857 48.8223 91.1847 47.4213 89.4721 47.4213H77.7093C75.9968 47.4213 74.5958 48.8223 74.5958 50.5349V56.1548C74.5958 57.8674 75.9968 59.2686 77.7093 59.2686H89.4721C91.1847 59.2686 92.5857 57.8676 92.5857 56.1548V50.5349Z" fill="#3B8D48"></path>
  <path d="M77.0084 47.5043C75.6311 47.8247 74.5957 49.0636 74.5957 50.5349V56.1548C74.5957 57.6264 75.6311 58.865 77.0084 59.1854C79.2128 58.1647 80.7424 55.9341 80.7424 53.3449C80.7425 50.756 79.2128 48.5254 77.0084 47.5043Z" fill="white"></path>
  <path d="M90.173 47.5043C91.5505 47.8247 92.5857 49.0636 92.5857 50.5349V56.1548C92.5857 57.6264 91.5503 58.865 90.173 59.1854C87.9688 58.1647 86.4388 55.9341 86.4388 53.3449C86.4387 50.756 87.9684 48.5254 90.173 47.5043Z" fill="white"></path>
  <path d="M35.2593 73.9913C35.2593 72.8494 34.3252 71.9153 33.1836 71.9153H22.5969C21.455 71.9153 20.5212 72.8494 20.5212 73.9913V75.6518C20.5212 76.7937 21.4554 77.7274 22.5969 77.7274H33.1835C34.325 77.7274 35.2591 76.7933 35.2591 75.6518V73.9913H35.2593Z" fill="white"></path>
  <path d="M53.5259 73.9913C53.5259 72.8494 52.5918 71.9153 51.4499 71.9153H40.8635C39.7216 71.9153 38.7875 72.8494 38.7875 73.9913V75.6518C38.7875 76.7937 39.7216 77.7274 40.8635 77.7274H51.4499C52.5914 77.7274 53.5259 76.7933 53.5259 75.6518V73.9913Z" fill="white"></path>
  <path d="M71.7926 73.9913C71.7926 72.8494 70.8585 71.9153 69.717 71.9153H59.1306C57.9891 71.9153 57.0549 72.8494 57.0549 73.9913V75.6518C57.0549 76.7937 57.9891 77.7274 59.1306 77.7274H69.717C70.8589 77.7274 71.7926 76.7933 71.7926 75.6518V73.9913Z" fill="white"></path>
  <path d="M90.0594 73.9913C90.0594 72.8494 89.1253 71.9153 87.9837 71.9153H77.3972C76.2557 71.9153 75.3215 72.8494 75.3215 73.9913V75.6518C75.3215 76.7937 76.2557 77.7274 77.3972 77.7274H87.9837C89.1256 77.7274 90.0594 76.7933 90.0594 75.6518V73.9913Z" fill="white"></path>
  <path d="M57.0553 40.6259C57.0553 42.3384 55.6543 43.7394 53.9418 43.7394H23.6348C21.9222 43.7394 20.5212 42.3384 20.5212 40.6259V37.5121C20.5212 35.7996 21.9222 34.3986 23.6348 34.3986H53.9418C55.6543 34.3986 57.0553 35.7996 57.0553 37.5121V40.6259Z" fill="#B6EB8C"></path>
</svg>
