<?xml version="1.0" encoding="UTF-8"?>
<svg xmlns="http://www.w3.org/2000/svg" width="112" height="112" viewBox="0 0 112 112" fill="none">
  <path d="M29.1769 21.9561C29.8862 35.1461 41.3846 56.2226 55.5 56.2226C69.6154 56.2226 81.1137 35.1447 81.8259 21.9561H29.1769Z" fill="#FFE1D2"></path>
  <path d="M36.3987 30.0631C36.9163 38.2078 45.261 51.2208 55.4999 51.2208C65.7444 51.2208 74.0863 38.2078 74.6011 30.0631H36.3987Z" fill="#B3E97D"></path>
  <path d="M86.6211 23.2087C86.6211 23.5492 86.3441 23.8248 86.0063 23.8248H24.9965C24.656 23.8248 24.379 23.5492 24.379 23.2087V13.144C24.379 12.8008 24.656 12.5265 24.9965 12.5265H86.0063C86.3441 12.5265 86.6211 12.8008 86.6211 13.144V23.2087Z" fill="#1964DB"></path>
  <path d="M86.0063 12.5265H24.9965C24.656 12.5265 24.379 12.8008 24.379 13.144V17.6893C24.379 18.0298 24.656 18.304 24.9965 18.304H86.0063C86.3441 18.304 86.6211 18.0298 86.6211 17.6893V13.144C86.6211 12.8008 86.3441 12.5265 86.0063 12.5265Z" fill="#1D86F3"></path>
  <path d="M36.919 33.168H74.0838C74.3608 32.0844 74.5404 31.0372 74.6013 30.0631H36.3987C36.4624 31.0372 36.642 32.0856 36.919 33.168Z" fill="#299045"></path>
  <path d="M81.8259 89.5703C81.1139 76.3803 69.6156 55.3052 55.5001 55.3052C41.3847 55.3052 29.8864 76.3817 29.1769 89.5703H81.8259Z" fill="#FFE1D2"></path>
  <path d="M76.0686 88.3624C75.512 78.226 66.5281 61.1124 55.5002 61.1124C44.4722 61.1124 35.4911 78.226 34.9343 88.3624H76.0686Z" fill="#3B8D48"></path>
  <path d="M24.379 88.3192C24.379 87.9773 24.656 87.7017 24.9965 87.7017H86.0063C86.3441 87.7017 86.6211 87.9773 86.6211 88.3192V98.3825C86.6211 98.7257 86.3441 99 86.0063 99H24.9965C24.656 99 24.379 98.7257 24.379 98.3825V88.3192Z" fill="#1964DB"></path>
  <path d="M24.9965 99H86.0063C86.3441 99 86.6211 98.7258 86.6211 98.3825V93.84C86.6211 93.4967 86.3441 93.2225 86.0063 93.2225H24.9965C24.656 93.2225 24.379 93.4967 24.379 93.84V98.3825C24.379 98.7258 24.656 99 24.9965 99Z" fill="#1D86F3"></path>
  <path d="M36.2853 81.4646H74.716C71.7421 71.935 64.2717 60.48 55.4987 60.48C46.7257 60.48 39.2592 71.9364 36.2853 81.4646Z" fill="#B3E97D"></path>
  <path d="M54 77.0652C54 77.6854 54.5012 78.1866 55.1215 78.1866C55.7416 78.1866 56.243 77.6854 56.243 77.0652V44.1215C56.243 43.5012 55.7417 43 55.1215 43C54.5012 43 54 43.5012 54 44.1215V77.0652Z" fill="#B3E97D"></path>
</svg>
