<?xml version="1.0" encoding="UTF-8"?>
<svg xmlns="http://www.w3.org/2000/svg" width="112" height="112" viewBox="0 0 112 112" fill="none">
  <path d="M76 74.1652L95.4485 90.4485V71H76V74.1652Z" fill="#085BBF"></path>
  <path d="M106.14 73.7896C106.14 77.0719 103.477 79.7352 100.193 79.7352H49.6485C46.3645 79.7352 43.7013 77.0719 43.7013 73.7896V47.0306C43.7013 43.7467 46.3645 41.0834 49.6485 41.0834H100.193C103.477 41.0834 106.14 43.7467 106.14 47.0306V73.7896Z" fill="#1D86F3"></path>
  <path d="M43.7013 47.0306C43.7013 43.7467 46.3645 41.0834 49.6485 41.0834H100.193" fill="#1D86F3"></path>
  <path d="M100.193 41.0836C103.477 41.0836 106.14 43.7469 106.14 47.0308V73.7897C106.14 77.0721 103.477 79.7353 100.193 79.7353H58.5676" fill="#1D86F3"></path>
  <path d="M35.4485 56.8872L16 73.1721V53.7236H35.4485V56.8872Z" fill="#3B8D48"></path>
  <path d="M67.243 54.9602C67.243 58.2442 64.5798 60.9074 61.2958 60.9074H10.7515C7.46755 60.9074 4.80432 58.2442 4.80432 54.9602V28.2013C4.80432 24.9173 7.46755 22.2541 10.7515 22.2541H61.2958C64.5798 22.2541 67.243 24.9173 67.243 28.2013V54.9602Z" fill="#B3E97D"></path>
  <path d="M4.80432 28.2013C4.80432 24.9173 7.46755 22.2541 10.7515 22.2541H61.2958" fill="#B3E97D"></path>
  <path d="M61.2958 22.2557C64.5798 22.2557 67.243 24.9189 67.243 28.2029V54.9602C67.243 58.2442 64.5798 60.9074 61.2958 60.9074H19.6675" fill="#B3E97D"></path>
  <path d="M36.8816 50.3857C35.3737 50.3857 34.1484 51.5965 34.1484 53.0864C34.1484 54.5764 35.3737 55.7887 36.8816 55.7887C38.3928 55.7887 39.6165 54.5761 39.6165 53.0864C39.6165 51.6219 38.3649 50.3857 36.8816 50.3857Z" fill="white"></path>
  <path d="M36.6097 28C32.1213 28 28.8652 31.2483 28.8652 35.7244C28.8652 35.9778 29.0761 36.1819 29.3359 36.1819H32.6984C32.9582 36.1819 33.1709 35.9796 33.1709 35.7244C33.1709 33.9216 34.3528 32.0985 36.6135 32.0985C38.7243 32.0985 40.2601 33.5798 40.2601 35.6222C40.2601 37.2957 39.2039 38.4998 37.9748 39.8943C36.5212 41.549 34.8721 43.4248 34.8721 46.4707C34.8721 46.7225 35.0813 46.93 35.3428 46.93H38.6739C38.9284 46.93 39.1428 46.7242 39.1428 46.4707C39.1428 44.4656 40.3437 43.1596 41.6179 41.777C43.0333 40.2447 44.6299 38.5033 44.6299 35.6222C44.6226 31.2755 41.18 28 36.6097 28Z" fill="white"></path>
  <path d="M68.1437 63.5588C69.4434 63.5588 70.4969 62.5309 70.4969 61.2629C70.4969 59.9949 69.4434 58.967 68.1437 58.967C66.8441 58.967 65.7905 59.9949 65.7905 61.2629C65.7905 62.5309 66.8441 63.5588 68.1437 63.5588Z" fill="white"></path>
  <path d="M79.3971 63.5588C80.6968 63.5588 81.7503 62.5309 81.7503 61.2629C81.7503 59.9949 80.6968 58.967 79.3971 58.967C78.0975 58.967 77.0439 59.9949 77.0439 61.2629C77.0439 62.5309 78.0975 63.5588 79.3971 63.5588Z" fill="white"></path>
  <path d="M90.6468 63.5588C91.9464 63.5588 93 62.5309 93 61.2629C93 59.9949 91.9464 58.967 90.6468 58.967C89.3471 58.967 88.2936 59.9949 88.2936 61.2629C88.2936 62.5309 89.3471 63.5588 90.6468 63.5588Z" fill="white"></path>
</svg>
